<svg xmlns="http://www.w3.org/2000/svg" viewBox="0 0 500 500"><path d="M92 272.16c-2.63-42.26-1.88-84.41 6.94-125.9C111.76 86 147.68 45.37 207.39 29.09c62.16-16.94 116.72.62 162.63 44.28 23.13 22 34 51.42 39.82 82.33 6.77 36 7.42 72.57 5.4 109.06-1.88 33.9-4.57 67.77-7.38 101.61-1.56 18.74-4.18 37.39-6.15 56.1-.34 3.3-1.73 4.69-4.85 5.73-48.53 16-98.51 21.15-149.28 19.53a597.44 597.44 0 01-141.83-21.57c-3.33-.92-4.79-2-5-5.83C98 370.93 95 321.55 92 272.16z" fill="#56493a"/><path d="M87.29 231.08c0-33.41 3-66.55 12-98.61C113.89 80.08 148 45 199.72 28.1c48.72-15.92 95.12-8.25 138.85 17 22.95 13.27 41.93 31 54.81 54.61 9.87 18.1 15.66 37.62 19.37 57.73a397.07 397.07 0 015.77 88.71c-.52 12.45-.78 24.91-1.56 37.33-1.46 23.38-2.92 46.77-4.93 70.1-1.61 18.68-4 37.28-6.13 55.91-.59 5.27-1.11 10.55-2.06 15.75-.26 1.4-2 2.53-3 3.79-.92-1.32-2.7-2.69-2.62-3.94.52-7.79 1.39-15.55 2.26-23.31 2.5-22.42 5.74-44.77 7.41-67.25 2.25-30.19 4.15-60.45 4.65-90.7.7-41.88-1.06-83.59-16.36-123.52C384 88.51 361.66 66 332.88 49.08a159.88 159.88 0 00-75.78-22.17c-53.1-2-96.45 17.31-129 60-16.42 21.54-23.9 46.19-28.42 72.41-5.68 32.83-6.68 65.77-5.33 98.86 1 23.55 2.47 47.09 3.67 70.63 1 20.4 1.85 40.81 3 61.19.61 10.43 1.85 20.83 2.78 31.24.09 1 .35 2.17 0 3a22.15 22.15 0 01-2.76 3.49c-1-1.12-2.69-2.16-2.83-3.39-.92-7.59-1.71-15.2-2.14-22.83q-2.55-44.82-4.84-89.66c-1.38-26.95-2.63-53.85-3.94-80.77z"/><path d="M125.86 372.6l-2.6 5.1c-1.33-1.63-3.61-3.14-3.83-4.91-1.7-13.31-3.08-26.66-4.38-40s-2.4-26.75-3.57-40.12a24.43 24.43 0 01-.27-6c.25-1.51 1.46-2.86 2.24-4.27.83 1.26 2.19 2.43 2.41 3.79 1.36 8.51 2.84 17 3.59 25.61 1.78 20.13 3.17 40.3 4.72 60.45zM386.53 347.92c-1.64 10-3.32 19.92-4.9 29.89-.91 5.72-1.51 11.49-2.61 17.17-.26 1.36-2 2.43-3 3.63-.76-1.48-2.34-3.07-2.17-4.44 1.32-10.66 3-21.28 4.51-31.93 1-6.87 1.66-13.78 2.68-20.64.17-1.18 1.3-2.22 2-3.33.9 1 2.36 2 2.6 3.11.43 2.07.12 4.29.12 6.45zM393.15 239.38a53.07 53.07 0 01-.95-7.15q0-22.65.34-45.28c0-1.53 1.19-3 1.83-4.57 1 1.41 2.74 2.77 2.85 4.25.51 6.44.77 12.92.69 19.37-.12 9.79-.52 19.57-1 29.34-.07 1.52-1.26 3-1.93 4.48zM104.21 232.58l3.26-6.27c1.1 2.11 2.74 4.12 3.16 6.36a79.36 79.36 0 011.24 13.25c0 1.4-1.42 2.83-2.19 4.24-1.2-1.27-3.19-2.42-3.44-3.85-.74-4.37-.8-8.84-1.13-13.27z"/></svg>