<svg xmlns="http://www.w3.org/2000/svg" viewBox="0 0 500 500"><path d="M416.66 255c-1.62 25.92-3.32 51.84-4.81 77.78-.27 4.74-2.05 7-6.75 8.67-56.29 20-114.23 28-173.79 24.87-44.63-2.33-88.16-10.26-130.37-25.15-3.65-1.29-5.12-2.91-5.39-6.92-3.25-48.39-6.34-96.78-3.37-145.25 1.82-29.63 7.25-58.65 21.39-85 21-39.18 54.2-63.49 96.58-75.84 30.47-8.88 60.42-4.82 90 4.08 36.41 11 66.44 31.16 87.14 63.71 12.42 19.53 18.83 41.36 22.69 64 5.35 31.36 6.3 63.14 6.68 95.05z" fill="#56493a"/><path d="M413 341.91l-5.18-.68c.83-14.59 1.73-28.82 2.44-43.07.68-13.62 1.45-27.25 1.67-40.88.28-18.25.7-36.54-.08-54.76-1.45-33.73-7-66.74-22.58-97.17-13.5-26.35-35.21-44.66-60.78-58.68-22.07-12.11-45.87-18.26-70.93-19.86a146.21 146.21 0 00-90.5 23.53c-33.47 21.58-55 52-63.84 91A398.85 398.85 0 0094 245.82c1.14 27.85 2.65 55.68 4 83.52.19 3.63.67 7.25 1 11.05l-6.06.27c-.63-10-1.41-19.78-1.83-29.56q-1.64-40.64-3.11-81.27c-.88-24 2.2-47.7 5.78-71.39 2.39-15.8 5.95-31.22 12-46 7.89-19.39 20.67-35.57 35.44-50C164.73 39.32 193.53 26.52 226 22c45.53-6.35 86.7 4.92 124.43 30.86C386 77.3 403.84 112.21 411.9 153.29c6 30.58 7.88 61.47 6.62 92.59-.51 12.61-.89 25.22-1.53 37.83-1 18.76-2.1 37.51-3.18 56.27a9 9 0 01-.81 1.93z"/><path d="M119.77 297.75l-2.94 6.45c-1.19-2.09-3.32-4.14-3.43-6.29-1.22-24.89-2.17-49.8-3-74.71 0-1.32 1.57-2.69 2.42-4 .64 1.36 1.77 2.7 1.84 4.1.46 9.3.53 18.62 1 27.92.87 15.41 2 30.81 3 46.22zM402.07 229.07q-4.12 31.57-8.27 63.13a5.27 5.27 0 01-.8 2.34 41.39 41.39 0 01-2.89 3.34c-.74-1.47-2.21-3-2.1-4.4.49-6.45 1.4-12.87 2.21-19.3q2.91-23.17 5.86-46.36c.39-3.13.59-6.3 1.19-9.4.19-1 1.35-1.83 2.06-2.74.77 1 2.17 1.91 2.2 2.89.1 3.45-.28 6.91-.48 10.37zM394.09 185.55V164.8l1.56-.23c4.23 4 2.88 9.5 3.16 14.51.19 4.24.04 4.25-4.72 6.47z"/></svg>