<svg xmlns="http://www.w3.org/2000/svg" viewBox="0 0 500 500"><path d="M76.45 466.76c-26.77-14.58-36.05-49.38-20.08-74.91 6.44-10.3 12.54-20.88 19.77-30.6 10-13.52 11.3-28.17 7.26-43.63a86.7 86.7 0 00-7.6-18.86c-7.73-14.39-14.75-28.95-19.29-44.76-7.63-26.55.44-48.71 17.67-68.72 4.77-5.55 9.63-11.05 14-16.92a53.29 53.29 0 009.34-21.73c11.62-57.5 53.85-108.21 121-120.63 49.48-9.15 93.57 3.47 134.12 32.8 25.17 18.2 39.93 42.78 49.93 71 3.54 10 5.11 20.63 8.46 30.68 1.73 5.2 5 10 8.25 14.54 8.61 12 19 23.11 23.14 37.62 5.42 18.9 6.2 38-.94 56.87a456.6 456.6 0 00-8.49 25c-6.61 21.24-2.93 41.49 8.37 59.87 13.9 22.59 16.93 44.94 4 68.84a218.9 218.9 0 01-28.43 40.56c-.73-.68-1.21-1.07-1.62-1.53-19.7-22.11-44.59-29.09-73.19-24.81a117 117 0 00-37.55 12.84c-32.85 17.37-66.9 18.08-99.9 1.93-36.9-18.06-72.27-15.11-107.84 2.3-3.58 1.76-7 3.76-10.47 5.81s-6.46 4.19-9.91 6.44z" fill="#56493a"/><path d="M247.85 19.92c49.28 1.25 92.3 18 126.89 54.19 17 17.8 27.06 39.59 33.16 63.26 1.53 5.93 3 11.9 4.09 17.91 1.78 9.29 7.84 16 13.52 22.89 10.79 13.13 19.6 27.19 22.49 44.35 3.13 18.64.86 36.69-5.38 54.39-4.19 11.89-8.33 23.75-8.87 36.59-.59 13.87 2.79 26.57 9.43 38.61 5.44 9.87 10.89 19.67 12.82 31.09 2.67 15.75-.83 30.34-8.85 43.51s-17.48 25.44-26.55 37.93c-1 1.31-3.55 1.42-5.39 2.09.16-2-.38-4.39.59-5.76 6.51-9.25 13.64-18.06 20-27.41 6.93-10.19 12.64-21 14.44-33.54 1.95-13.55-1.7-25.67-8.24-37.16-7.79-13.7-14.05-27.77-14.34-44-.23-12.85 2.49-25.08 6.7-37 4.59-13 8.52-26.06 9.08-40.07.91-22.57-7.11-41.81-21.74-58.2-9.93-11.11-14.94-23.67-18-38C398.6 121.4 389 98.93 372 80.5c-27.72-30-62.14-47.07-102.54-52.56-38.44-5.23-74 3-105.78 24.61-29.55 20-50.75 47.37-58.44 82.7-4.51 20.71-14.45 37.3-27.74 53-6.14 7.25-11 15.77-15.41 24.25-7.82 15.06-5.91 30.86-.49 46 4.22 11.8 10 23.08 15.45 34.4 5 10.32 10.16 20.49 11.93 32 2.63 17.14-3.11 31.54-13.58 44.81-9.4 11.9-17.76 24.29-21.73 39.42-5.3 20.12 2.94 41.94 20.86 52.49.57.34 1.25.52 1.79.89 2.15 1.51 5.34 3.13 3.5 6.12s-4.58.87-6.88-.51c-18.72-11.19-27.74-27.86-26.71-49.46.77-16.05 7.46-30.16 16.82-43.05 4.59-6.33 9.62-12.39 13.73-19 10.23-16.5 8-33.33.11-49.93-6-12.56-13.36-24.57-18.34-37.52-5.46-14.16-9.42-29.16-6.63-44.77 2.71-15.16 10.39-27.85 19.8-39.68 5.59-7 11-14.16 16.75-21.08 7.4-9 7.29-20.39 10.38-30.74 15.62-52.3 49-87.5 100.87-104.79a152.67 152.67 0 0148.13-8.18z"/><path d="M390.64 322.35c.68-14.64 5.39-27.19 11-39.44 8.73-19.12 11.44-38.65 5-59.06-.49-1.57.65-3.66 1-5.5 1.43 1.32 3.58 2.37 4.19 4 5.47 14.56 5.79 29.49 1.85 44.41a153.59 153.59 0 01-7 19.65c-5.11 12.29-10.25 24.53-9.75 38.22.08 2.14.91 4.29.74 6.39-.14 1.68-1.25 3.29-1.94 4.94-1.26-1.22-3.25-2.25-3.63-3.7a75.57 75.57 0 01-1.46-9.91zM88.87 411.17c-.49-11.06 4.8-20.65 12-29.48 5.17-6.34 10.19-12.82 11.25-21.26.36-2.87-.39-5.86-.32-8.78a18.61 18.61 0 011.14-4.33c1.34.91 3.32 1.51 3.9 2.77 4.39 9.46.41 17.89-4.08 25.9-2.75 4.9-6.53 9.24-9.92 13.76-10.13 13.5-10.84 28.29-2 42.76a7 7 0 011.38 2.61 25.21 25.21 0 01-.38 4.56c-1.57-.52-3.8-.54-4.6-1.62-5.75-7.69-8.53-16.43-8.37-26.89zM99.87 193.26c0 1.86.55 3.88 0 5.53-1.4 4.05-3.66 7.8-4.95 11.87-6 18.77-1.72 36.58 5.46 54.06.18.46.64.91.62 1.34-.11 2.22-.34 4.42-.53 6.63-1.65-1.22-4.13-2.09-4.82-3.72-8.69-20.29-13.32-41.06-5.61-62.78 1.36-3.85 3.73-7.35 5.78-10.93a10.79 10.79 0 012.36-2.26zM416.43 395.61c-.75 11.21-6.1 19.83-11.76 28.25-.62.92-2.78.8-4.23 1.16-.25-1.47-1.09-3.16-.63-4.35a42.46 42.46 0 013.88-6.91c6.13-10 8.1-20.19 2-31.06-.75-1.32.05-3.52.13-5.32 1.71.87 4.35 1.32 5 2.68 2.18 5.02 3.78 10.35 5.61 15.55zM369.38 382.15c-1.25 8.06-2.05 14.46-3.36 20.74-.3 1.42-2.41 2.46-3.69 3.67-.62-1.68-2.07-3.55-1.74-5a82.45 82.45 0 00-2-43.62c-.41-1.27.4-2.94.65-4.43 1.44 1.06 3.84 1.87 4.19 3.22 2.35 8.84 4.23 17.82 5.95 25.42zM136.38 397.72c2.33-7.12 4.32-13.68 6.72-20.1.48-1.3 2.49-2 3.8-3 .33 1.57 1.16 3.23.91 4.7-1.16 6.95-3.6 13.84-3.64 20.76 0 5.33 3 10.64 4.34 16 .48 1.9 1 5.13.12 5.79-3.11 2.28-4.57-1.05-5.32-3.08-2.53-6.85-4.61-13.87-6.93-21.07z"/></svg>