<svg xmlns="http://www.w3.org/2000/svg" viewBox="0 0 500 500"><path d="M248.91 23.09c49.42 2.57 93.17 18.29 126.81 56.2 16.42 18.49 27 40.27 32.48 64.39a8.8 8.8 0 01-1 5.93c-6 9.64-22.91 16.72-33.76 14.21a18 18 0 01-5.71-3c-9.19-6.31-18.21-12.89-27.5-19.05q-43.24-28.69-86.74-57a7.86 7.86 0 00-6.67-.19c-9.12 4.79-18.33 9.55-26.9 15.23-28.71 19-57.18 38.42-85.68 57.77-8.37 5.69-28.76 2.32-34.18-6.11-.83-1.29-.72-3.46-.44-5.12C104 120.13 116.86 98 133.09 77.54 158.91 45 193.69 29.28 234 23.93c2.81-.38 5.63-.64 8.45-.81 2.12-.12 4.29-.03 6.46-.03z" fill="#56493b"/><path d="M101.56 148.74h-6a124.51 124.51 0 0110.54-36.89c19.47-41.09 49.93-70.19 94-84 48.78-15.19 94.84-7.85 138.42 17.26 22.8 13.16 41.71 30.73 54.58 54.15 8.45 15.38 13.78 31.89 17.72 48.9-5.63 1.6-5.62 1.56-7-3.68-6.13-23.56-15-45.87-31.8-64-27.71-29.98-62.12-47.1-102.52-52.6-38.43-5.24-73.95 3-105.77 24.58-31.63 21.42-52 51.3-60.58 88.84-.3 1.3-.65 2.58-.94 3.88l-.65 3.56z"/><path d="M126.77 166.57c-2.42-4.74-1.9-7 3-9.62 6.63-3.54 12.13-9.17 18.26-13.71a842.26 842.26 0 0185.9-56.08c2.74-1.55 5.8-2.79 8.07-4.87 5.1-4.67 9.55-2.75 14.56.13 27.71 15.91 54.17 33.69 80 52.46 9.81 7.13 19.81 14 29.72 21 .82.57 1.63 1.46 2.52 1.57 7 .81 5.07 5.67 4.91 11-7.95-5.33-15.24-10.16-22.47-15.1-26.49-18.08-52.91-36.27-79.46-54.26-6.18-4.19-12.82-7.7-19.18-11.64-2.63-1.63-4.8-2-7.7-.14-20.39 12.84-41.26 24.95-61.26 38.35-18.07 12.1-35.24 25.55-52.82 38.39-1.29.95-2.68 1.66-4.05 2.52zM292.83 66.47c1.65.59 3.51.85 4.91 1.8C315.08 80 332 92.2 346.6 107.39c.23.24.6.44.68.72.59 2 1.12 4 1.66 6-1.91-.49-4.27-.44-5.68-1.57q-24.06-19.22-47.82-38.83c-1.76-1.45-2.86-3.69-4.26-5.56zM130.76 131.64c1-1.72 1.62-3.84 3-5.1a2636 2636 0 0143.47-38.55c1.87-1.61 4.69-5.06 8.42-.42l-53.41 45.33z"/></svg>