<svg xmlns="http://www.w3.org/2000/svg" viewBox="0 0 500 500"><path d="M375 164.7c-41.79-40.94-88-38.41-124.84-13a21.26 21.26 0 01-2.25-1.56c-32.67-28.24-68.33-30.06-103.5-5-6.35 4.51-12.15 9.79-19.16 15.5-.78-5.82-2.17-11.28-2.14-16.73.16-31.13 10.55-59.61 22.86-87.63l13 17.14c3-4.87 5.52-8.7 7.72-12.73 4.54-8.31 9.1-16.63 13.25-25.15 1.82-3.75 4.24-4.7 7.43-2.68 4.3 2.72 8.69 5.55 12.27 9.11 5.93 5.89 7.52 6.59 13.28.69 8.48-8.68 16.36-17.94 24.56-26.9A57 57 0 01245 8.38c3.16-2.39 6.05-1.74 8.4 1.81 10 15.1 20.28 30.06 30.22 45.23 2 3.07 3.75 3.4 6.82 1.83 4.66-2.39 9.66-4.1 12.87-8.69a14.47 14.47 0 013.8-3.21c5.93-4.05 9.09-2.93 11.82 3.62 4.47 10.72 8.85 21.51 13.9 32 3.73 7.73 9.31 8.57 16 3 3.31-2.76 6-6.28 9.32-9s5.8-2 6.84 1.82c7.66 28.43 10.1 57.48 10.01 87.91z" fill="#564a3b"/><path d="M145.14 48.68L159.06 70c4.25-8.31 8.2-15.93 12.05-23.6 2.08-4.16 3.86-8.47 6-12.59 2.93-5.56 7.07-6.92 12.33-3.52a92.36 92.36 0 0112.92 10.15c3.49 3.26 6.05 3.11 9.19-.29Q227 23.5 242.7 7.09c5.27-5.52 8.28-5.43 12.63 1 9.76 14.48 19.18 29.18 28.72 43.8.81 1.25 1.55 2.55 2.55 4.19 6.54-4.2 13-8.2 19.33-12.48 8.81-6 11.46-5.68 15.91 3.94 5 10.83 9.24 22 13.86 33 2.09 5 3.76 5.82 8.2 2.85 4.79-3.21 9.09-7.17 13.44-11 4.73-4.16 9-3.43 10.34 2.63 2.06 9 3.48 18.19 4.87 27.34 2.3 15 4.71 30.1 6.34 45.23.69 6.35-.26 12.91-.91 19.33-.25 2.45-1.74 4.77-3.08 8.21-2.29-3-4.69-5-5.41-7.4-2.34-7.89-8.42-12.28-14.79-16-22.47-13.05-46.4-19-72.26-12.6a61.09 61.09 0 00-27.82 14.84c-2.2 2.08-4.29 1.77-6.54-.23-11.88-10.54-25.33-18.27-41-21.42-30.39-6.1-54.38 4.63-73.22 28.48a16.41 16.41 0 01-3.16 3.2c-1.51 1.09-4 3.08-4.67 2.62-1.73-1.15-3.71-3.41-3.81-5.31-.63-12.36-2.1-24.88-.73-37.06s5.29-24.25 8.88-36.13c3.45-11.41 7.88-22.52 11.92-33.74.5-1.38 1.32-2.66 2.85-5.7zm217.25 28.23c-3.71 3.26-6.11 5.87-9 7.76-3.69 2.43-7.56 4.89-11.71 6.23-5.2 1.67-8.55-.41-10.68-5.52-3.39-8.11-6.57-16.31-10-24.42-2.08-5-4.41-9.81-6.7-14.89L290 61.4c-3.86 2.43-6.7 1.69-9.12-2.3-5.42-9-11-17.81-16.66-26.62-4.9-7.63-10-15.15-15.14-23-11.57 12.31-22.41 24-33.47 35.53-6.26 6.51-9.69 6.43-16.64.66-4.66-3.87-9.47-7.55-14.83-11.8-3 6.26-5.47 11.5-8.1 16.64-3.71 7.24-7.21 14.63-11.48 21.53-3.41 5.53-7.84 5.37-11.45.25-2.31-3.28-4.35-6.74-6.65-10.35-14.34 31.18-22.91 75.95-18 93.43 34-36.22 75.76-43.78 123-8 43.47-25.94 83.43-22.3 121.66 11.52-.12-27.72-6.97-54.01-10.73-81.98z"/><path d="M233.69 49.48c2.63-6.52 5.33-13.37 8.24-20.13a3.19 3.19 0 012.77-1.25 2.9 2.9 0 011.38 2.51 507.57 507.57 0 01-6.77 21.66c-.29.84-2.64 1.89-3 1.6-1-.87-1.48-2.33-2.62-4.39zM311.2 76.19a85.9 85.9 0 01-1.52 10.29c-.36 1.38-2.18 2.39-3.34 3.56-.75-1.3-2.22-2.66-2.12-3.89.45-5.26 1.28-10.49 2.21-15.69a3.25 3.25 0 012.39-2c.64 0 1.81 1.33 2 2.2a32.15 32.15 0 01.1 5.47zM194.81 72.79l-2.61 3.13c-1-1.07-2.72-2-2.94-3.24A99.14 99.14 0 01188 59.81c-.05-1.11 1.13-2.26 1.75-3.39.95 1 2.49 1.78 2.75 2.9.93 4.19 1.5 8.47 2.31 13.47zM253.24 48.61l2.41-3c1.12 1.06 2.85 1.93 3.24 3.2A49.44 49.44 0 01260.76 59c.09 1-1.36 2.2-2.1 3.31-1.18-.86-3.07-1.52-3.39-2.63-.96-3.34-1.27-6.8-2.03-11.07zM150.11 91c-1.33 2.42-3 6.76-3.76 6.61-4.25-.77-3.16-4.66-2.71-7.52.41-2.56-1.22-6.84 3.28-6.81.99-.01 1.94 4.53 3.19 7.72zM351.65 103.37c1.79-2 3-3.34 4.3-4.71.83 1.51 2.45 3.11 2.3 4.52-.17 1.72-1.83 3.28-2.85 4.91z"/></svg>