<svg xmlns="http://www.w3.org/2000/svg" viewBox="0 0 500 500"><path d="M126.16 161.52C121 142.48 109 129 95 116.66 82 105.07 72.64 91 73.06 72.54 73.55 51 96.16 27.67 116.1 28a27.09 27.09 0 013 .15c10.78 1.4 13 4.21 11.56 15-.63 4.7-.67 9.23 2.28 13.63 4.47-1.49 6.58-4.45 6.18-9a19.63 19.63 0 00-1.68-6.19c-3.19-7.1-3.16-8.26 2.64-13.75q14.18-13.41 33.18-8.46c12.68 3.28 23.65 9.61 33.63 17.9 1.24 1 2.5 2 4 3.24 9.66-17.87 25.56-18 42.2-15.06 7.15 1.29 14 4.24 21.07 6 5.48 1.34 7 4.84 6.77 9.83-.26 5.22 2.13 8.87 6.54 11.4 3.4-4.36 3.64-8.29-1-12.8-4.26-4.16-3.45-8.07-1.81-12.59 5-13.67 21.53-22.27 36.4-18 16.88 4.83 28.78 16.91 39.73 29.83 1 1.22-.24 4.95-1.17 7.22-3.14 7.6-2.56 11.46 3.24 15.6 5.79-5.74 3.46-12.05 1.47-18.35 18.66-9.84 35.06 3.27 39.72 31.8.26.19.52.51.8.54 17.25 1.4 24.93 14.24 18.31 31.88a44.58 44.58 0 01-9.54 15c-5.51 5.69-11.64 11.26-18.52 15-11.68 6.37-19.15 15.12-21.24 28.68-6.87-6.18-13.18-12.29-19.94-17.87-25.59-21.12-54.15-37-87.25-41.48-55.22-7.48-102.12 9.21-138.66 52.31z" fill="#56493b"/><path d="M427.79 98.76c-1.15 13.15-7.44 24.29-18.61 32.56-6.28 4.65-13 8.67-19.37 13.25-6.54 4.74-11.54 10.59-11.65 19.32a6.15 6.15 0 01-.49 2.44c-.81 1.74-1.77 3.41-2.67 5.11-1.56-1.05-3.37-1.84-4.63-3.17-25.56-27.13-55.68-47.23-91.86-56.76-26.54-7-53.17-4-79.48 3.07-24.63 6.65-44.86 19.93-61.39 39.12-2.27 2.63-3.92 5.8-6.21 8.42-1.19 1.37-3.47 3.19-4.66 2.83a6.63 6.63 0 01-4-4.43c-1.74-12.7-9.53-21.67-17.9-30.37-7.61-7.92-15.63-15.5-22.72-23.86-27.62-32.62-1.45-75.42 29.18-80.38a24 24 0 0116.83 2.94c3.76 2.3 6.11 1.43 9.14-1.25 7.44-6.62 15.58-11.88 26.15-12.13 8.65-.2 16.46 2.59 23.85 6.46a166.75 166.75 0 0118.12 11.44c2.85 2 4.73 2.28 7.22-.39 9.3-10 21.27-13.21 34.2-11.29 9.78 1.46 19.39 4.48 28.85 7.52 4 1.28 5.48.68 7.23-2.93 9.49-19.6 28.67-26 48.16-16.16a83.29 83.29 0 0130.23 25.57c1.94 2.66 3.8 4 7.45 3.33 17.13-3.33 32.2 6.74 35.48 24.08 1.12 5.93 3 9.38 9.14 11.75 9.99 3.82 14.18 12.51 14.41 23.91zm-245.15 5l1.51-.86c.87.81 2.22 1.46 2.52 2.44 1.94 6.26 5.77 6 11.21 4.49 32.53-8.83 65-10.06 97.2 1.87 4.27 1.59 7 .18 8.27-3.66a45.62 45.62 0 001.79-10.68c.18-2.28-.67-4.64-.57-6.94 0-1 1.27-2 2-3 .74.77 1.94 1.44 2.14 2.33 1.54 6.93 2.6 14-1.73 20.29-2.91 4.21-1.36 5.6 2.46 7.78 12.43 7.06 24.91 14.14 36.72 22.17 7.65 5.2 14.14 12.09 21.18 18.19 1.85 1.61 4.41 4.11 5.77.21 3.66-10.47 11.65-16.68 20.34-22.46 5.54-3.69 11.24-7.24 16.3-11.52a37 37 0 0013.16-25c.92-8.72-3.5-16.17-11.27-20-3.73-1.81-6.8-2.45-9.09 2.13-.77 1.52-2.44 3.28-4 3.57-2.16.42-5.22.32-6.66-1-1.12-1-1.13-4.53-.23-6.17 1.08-2 3.73-3 5.53-4.69 1.23-1.13 2.95-2.48 3.12-3.89 1.64-13.71-14.89-28.77-28.37-26.13-3.26.64-4.42 2.1-3.75 5.58.56 2.87.89 6.18 0 8.81-.79 2.21-3.55 5.14-5.44 5.14S357.27 60 357 58c-.57-3.7.78-7.67 1.11-11.54.2-2.43 1-5.68-.2-7.22-9.13-11.69-19.82-21.71-34.1-26.81-14.58-5.21-30 1.55-36.45 15.49-1.73 3.74-2.13 6.92 1 10.52a15.82 15.82 0 013.61 9c.1 2.2-1.93 5.41-3.91 6.43-1.18.61-4.86-1.63-6-3.48-1.42-2.21-1.75-5.35-1.88-8.11-.19-4-1.91-6.41-5.47-8.12a82.93 82.93 0 00-34.82-7.95c-8-.14-15.32 2.9-21.53 8.13-3.73 3.13-5.48 6.64-2.06 11.21a13.06 13.06 0 012 4.53c.73 2.86 1 6-2.43 7.21s-5.82-.67-7.31-3.63a8.13 8.13 0 01-1.12-4.29c1.07-7.82-3.69-11.92-9.47-15.45-4.12-2.52-8.16-5.2-12.42-7.46-16.84-8.94-30-7.68-43.91 3.83-3.36 2.79-4.73 5.37-2.21 9.79 3.17 5.58 3.18 11.64-1.17 16.81-1.18 1.4-3.92 2.58-5.53 2.18s-3.27-2.91-3.42-4.63a65.34 65.34 0 01.21-13.91c.5-3.84-.63-6.65-4.08-7.41-4.91-1.09-10.29-2.5-15-1.55-25.06 5-46.58 39.31-28.47 65.57 6.55 9.5 14.83 18 23.12 26.07 7.84 7.68 14.73 15.81 19.51 25.7 1.07 2.2 2.44 4.26 4.31 7.5 15.61-20 35.21-33.64 57.22-43.4a426.55 426.55 0 01-3.49-9.28zM134 52.15h1.51v-8.56H134zm229.7-1.51l-2.48.19.64 6 2.23-.26z"/><path d="M108.48 89.16c.64-8.52 8.84-14.29 15.74-10.76 1.14.58 1.82 2.06 2.71 3.12-1.23.46-2.55 1.44-3.7 1.27-3.31-.48-7.08-.81-8.21 2.64-.9 2.75-.78 7.21.91 9.16 4.48 5.17 10 9.48 15.23 14 1.35 1.15 3.43 1.42 4.83 2.53a31.44 31.44 0 013.84 4.35c-1.83 0-3.9.55-5.46-.11-8.39-3.51-16-8.31-21.22-15.95-2.08-3.09-3.15-6.83-4.67-10.25zM366.59 126.55a47.83 47.83 0 015.16-4c2.27-1.35 4.85-2.17 7.16-3.47 7.31-4.1 8.38-7.93 4.62-15.32a21.3 21.3 0 01-1.15-4l1.07-.93c1.37.82 3 1.39 4.05 2.52 4.23 4.56 4.38 11.16.47 16.45-5.1 6.9-12.92 8.26-20.15 10.79zM157.42 59.79c-.4-1.87-1.21-3.77-1.13-5.62.45-9.53 11.57-17.55 20.83-15 1.49.41 2.63 2.07 3.93 3.15-1.5.54-3 1.64-4.49 1.55-8.89-.55-14.33 3.45-16 12.05-.25 1.23-.73 2.42-1.1 3.63zM258.92 100.89c3.36-9.57-.45-18.51-1.39-27.84 5.74 4.24 6.42 10.52 6.9 16.67.33 4.34-.07 8.82-5.51 11.17zM328.45 45.89c-.21.37-.51 1.62-1.16 1.86a3.12 3.12 0 01-2.5-.93 330.17 330.17 0 01-10.69-10.81c-.67-.72-1.29-2.25-1-2.92s1.92-1.2 2.88-1.09c4.54.5 12.3 9 12.47 13.89z"/></svg>