<svg xmlns="http://www.w3.org/2000/svg" viewBox="0 0 500 500"><path d="M99 149a126.88 126.88 0 0116.72-48.57C149.26 44.72 199 19.15 263.48 24c40.78 3.06 76.73 18.62 105.4 48.73 19.83 20.84 32.79 45.42 39.34 74.59C305 149.27 202.18 148.85 99 149z" fill="#56493a"/><path d="M101.79 148.74h-6.15a125.93 125.93 0 0110.58-37c19.53-41.06 50-70.14 94.07-83.9 48.61-15.17 94.53-7.92 138 17 23 13.19 42 30.86 55 54.46 8.44 15.38 13.79 31.87 17.77 49.18-3.9 1-6 .87-7.24-4.09-5.83-23.82-15-46.22-32-64.43C344 50.29 309.76 33.2 269.52 27.85 227.91 22.33 190 32.1 156.91 57.43c-29.85 22.84-48.54 53.33-55.12 91.31z"/><path d="M128.86 145.63h53c.32-3.63.33-7.29 1.08-10.8.31-1.47 2.18-2.62 3.35-3.91.81 1.61 2.21 3.19 2.29 4.84.15 3.11-.46 6.26-.83 10.12H270c0-6.51-.17-12.77.11-19 .08-2 1.39-3.87 2.14-5.8 1.24 1.83 3.41 3.6 3.55 5.51.45 6.26.17 12.57.17 19.16h35.36c-1.42-10.79-2.46-21.45-4.37-31.95-.83-4.51.65-6.06 5.42-7 1.62 13 3.24 25.86 4.76 37.95h51v-16.09c0-1.66-.28-3.44.21-5 .36-1.11 1.77-1.89 2.7-2.82.8.92 2.21 1.8 2.28 2.77.32 5.06.07 10.17.5 15.22a23.55 23.55 0 002.29 7.92c1.31 2.73 0 5.15-3.49 5.15-9.82 0-19.64-.26-29.46-.29-7.63 0-15.26.16-22.88.25-14.62.18-29.24.49-43.86.52-31.59.07-63.17 0-94.76 0q-26.4 0-52.8.15c-4 0-6-1.45-5.48-5.64 1-8.24 1.77-16.51 2.93-24.72.17-1.19 1.93-2.14 3-3.2.9 1.35 2.65 2.78 2.55 4-.47 5.44-1.5 10.83-2.28 16.25-.33 2.02-.48 3.99-.73 6.41z"/></svg>