<svg xmlns="http://www.w3.org/2000/svg" viewBox="0 0 500 500"><path d="M376.13 168.52c-8.07-7-15.31-13.57-22.89-19.73-23.13-18.81-48.34-33.54-78.09-39.23-25.69-4.9-51-2.78-76.15 3.67-27.79 7.12-49.06 23.77-67.54 44.77l-4.14 4.67c-4.26-18.85-.17-36.16 4.68-54-7.19 3.53-14 5.88-21.5 3.59C96.47 108 90.29 97.39 87 83.89 80.62 58 101.89 37.26 123.4 34.16a68.37 68.37 0 0120.79-.1c12.32 2.08 19.29 10.95 19.88 23.38.17 3.45 0 6.91 0 10.83 8-4.49 15.93-8.58 23.51-13.22 49-30 114.73-18.6 149.8 11.7a7.05 7.05 0 001.33.61v-3.83c-.53-15.2 6.24-25.25 20.53-30.66 9.59-3.63 19.11-4 28.67.08 22.73 9.69 34 36.76 24.12 58-6.81 14.7-21.73 21-37 15.46-3.85-1.41-7.45-3.51-12-5.71 9.74 21.7 14.53 43.72 13.1 67.82z" fill="#564a3b"/><path d="M249 109.6c-13.24 21.57-15.54 44.59-17.1 67.81l-2.29.07c-.54-2.29-1.64-4.62-1.51-6.88.6-9.77.54-19.74 2.64-29.21 2.44-11 6.89-21.64 10.73-33.22-9 1.21-18.54 2.21-28 3.81-31.77 5.36-58 20.37-78.21 45.61-1.55 1.93-2.65 4.25-4.37 6-1.37 1.39-4 3.45-4.94 3a8.16 8.16 0 01-3.77-5.33c-.8-6.07-1.76-12.33-1-18.33 1.08-9.15 3.52-18.14 5.38-27.2l.59-2.88c-8.15 2.71-15.84 3.32-23.24-.15-13.7-6.42-19.64-18.37-21.82-32.44C77.3 49.42 105.55 27 135 28.92A46.86 46.86 0 01149 32c12.37 4.94 17.35 13.11 17 26.4 0 1.12-.1 2.24-.18 3.92C221.85 25.21 278 22.5 334.6 59.63c-2.15-26.11 34-41.31 55.69-29.56 19.49 10.55 30.25 31.16 26.71 52.77-3.34 20.38-22.92 32.06-42.59 25.41l-6.84-2.35c8.22 19.32 13.26 38.43 11.09 58.73-.35 3.26-2.09 6.37-3.3 9.88-32.79-35.39-70.29-60.48-119.65-66 2.73 5.39 5 9.91 7.31 14.44a6.38 6.38 0 011 2.26c.12 2.55.85 6.9-.13 7.35-3.93 1.8-4.09-2.36-5.31-4.66-3.05-5.84-6.08-11.65-9.58-18.3zm123.71 52.11c.18-2.58.28-3.54.31-4.5.54-14.89-2.85-29-8.6-42.61-6.21-14.65-12-29.7-24-40.84-12.56-11.71-26.42-21.33-43.35-26.33-20.31-6-40.64-9.54-61.88-6.57-20.46 2.85-39 10.47-56.53 21.06-12.89 7.8-24.52 17-33.49 29.31-9.35 12.86-14.16 27.54-17 42.87-2.38 12.71-1.9 15.64.16 20.08l33.07-30.58c-3.53-6-2.89-13.12-1.82-20.19.25-1.6 2.42-2.92 3.71-4.37.64 1.78 1.78 3.54 1.83 5.33.13 5.64-1.54 11.47 2 17 24.86-13.56 51.64-18.24 79.77-19.57v-5.07c0-5.66-.08-11.33.21-17 .06-1.24 1.57-2.41 2.42-3.61a46.15 46.15 0 013.1 3.76c.3.43 0 1.28 0 1.94v19.94l22.89 3.2a61.75 61.75 0 002.08-25.25c-.71-5.6-1.81-11.14-2.37-16.75-.14-1.43 1.16-3 1.8-4.5 1.31 1.15 3.6 2.17 3.76 3.46 1.27 10 2.47 20.07 3 30.15.23 4.69-1.13 9.46-1.82 14.57 19.87 5.52 38.09 14.42 55.82 26.48 1-3.76 2.12-6.41 2.21-9.1.15-4.78-.56-9.59-.45-14.38 0-1.68 1.4-3.34 2.16-5 1.19 1.27 3.14 2.39 3.43 3.85 1.68 8.22 2.1 16.51-1.16 24.48-1 2.46-.59 3.72 1.46 5.38 7 5.64 13.72 11.54 20.54 17.37 1.94 1.71 3.89 3.47 6.74 5.99zM94.07 54.32a29 29 0 00-2 2.72c-8 14.1-5.38 30.14 4.57 42.31 11.46 14 30.71 11.89 40.16-3.4 5.55-9 11.71-17.64 18.1-26.06 8.6-11.33 6.24-25-6.12-31A39 39 0 00137 35.38c-12.32-1.61-23.33 2-34.06 9.35a20.47 20.47 0 013.45 1.5c5.27 4 10.68 7.74 15.58 12.11 1.18 1 .6 4.06.83 6.16a46.18 46.18 0 01-5.38-2.24c-1-.54-1.53-1.74-2.37-2.53-3.81-3.61-7.7-7.11-13.48-8.27-1.64 9.27-.61 17.5 4.87 25 1.46 2 4.28 4.55.83 6.57-1 .6-4-2.13-6.08-3.44-.5-.33-.74-1.08-1.1-1.63-4.72-7.14-5.56-15.12-6.02-23.64zM387.9 36.74c-9.59-6.27-24.63-5.62-34.7 1.39-12.57 8.74-17.73 19.41-5.21 34.71 3.24 4 6.74 7.88 9.07 12.35a34.83 34.83 0 0011.66 13.24c10 6.7 22.76 7.36 32.86-.45 13.05-10.1 12.65-32.36 3.64-45.35-.11-.16-.59-.07-1.06-.1A8.81 8.81 0 01404 55c-2 5.72-3.93 11.5-6.38 17-.55 1.23-3.18 1.53-4.84 2.26-.14-1.68-.61-3.42-.32-5 .24-1.39 1.62-2.56 2-4a120.37 120.37 0 003.41-14.79c.2-1.44-1.49-3.76-2.95-4.71-6.45-4.21-12.85-3.05-19.15.77-1.81 1.1-4 1.53-6 2.27 2.11-10.68 10.43-10.38 18.13-12.06z"/></svg>