<svg xmlns="http://www.w3.org/2000/svg" viewBox="0 0 500 500"><defs><style>.cls-1{fill:#fe7777;}</style></defs><title>Artboard 1</title><g id="color"><path class="cls-1" d="M241.24,285.16h19.23c1.88,7.62,2,14.93-2,21.87a18.42,18.42,0,0,1-2.95,3.91c-4.72,4.68-8.71,4.23-11.66-1.73C240.05,301.55,240.87,293.34,241.24,285.16Z"/></g><g id="outline"><path d="M237.38,288.16a30.68,30.68,0,0,1-5.84-.59A4.23,4.23,0,0,1,229.3,285c-.14-.44,1.27-1.87,2.12-2a56.35,56.35,0,0,1,8.88-.87c9.93-.13,19.86-.18,29.78,0,1.47,0,2.91,1.22,4.37,1.88-1.36,1.07-2.56,2.53-4.1,3.1-1.81.68-3.9.58-6.35.88,0,4.26.2,8.39-.05,12.48-.35,5.6-1.84,10.84-7.09,13.94-6.44,3.8-13.55,1.39-15.55-5.76C239.5,302.07,238.71,295.31,237.38,288.16Zm5.32-.1c1,5.95,1.56,11.39,3,16.59.58,2.14,2.72,4.86,4.69,5.41,3.41,1,6.29-1.53,7-4.87,1.15-5.53,1.58-11.22,2.28-16.6-4.62-1.2-5.79.27-5.52,3.57a19.92,19.92,0,0,1-.2,5.93c-.3,1.3-1.54,2.38-2.35,3.56-.83-1.25-2.22-2.43-2.36-3.75a99.31,99.31,0,0,1-.11-10.12Z"/></g></svg>