<svg xmlns="http://www.w3.org/2000/svg" viewBox="0 0 500 500"><defs><style>.cls-1{fill:#fe7777;}</style></defs><title>Artboard 1</title><g id="color"><path class="cls-1" d="M248.26,309c-6.39.88-14-6.25-14.16-12.06-.38-11.14,5.62-18.22,14.61-17.87,8,.32,15.36,7.06,15,14.76C263.31,302,257.15,309.76,248.26,309Z"/></g><g id="outline"><path d="M246.69,311c-8.69.16-16.2-8.09-16.23-17.85a17.71,17.71,0,0,1,16.78-17.61c12.21-.59,18.44,7.89,19,17.17C266.77,302.69,257.87,310.82,246.69,311Zm-10.78-17.75c0,6.74,5.25,12.71,10.94,12.54,7.7-.24,14.27-6.35,14.21-13.24-.05-6.42-5.68-11.72-12.35-11.62C241.28,281.07,235.86,286.29,235.91,293.27Z"/></g></svg>