<svg xmlns="http://www.w3.org/2000/svg" viewBox="0 0 500 500"><defs><style>.cls-1{fill:#fff;}</style></defs><title>Artboard 1</title><g id="color"><path class="cls-1" d="M216.73,280.2l68.88-1S256.31,331.55,216.73,280.2Z"/></g><g id="outline"><path d="M251.51,277.4c10.62-.51,21.25-1.07,31.87-1.51,6.87-.29,7.81,1.31,4.87,7.41-8.09,16.82-33.11,29.24-56.73,16.42-6.9-3.75-12.8-8.44-16.8-15.16-1-1.73-1.49-4.63-.72-6.29.56-1.2,3.59-1.7,5.54-1.73,10.65-.16,21.3-.07,32-.07ZM283.08,282h-64c8.83,11,18.8,16.7,31.7,17.19C264.68,299.75,274.78,293.36,283.08,282Z"/></g></svg>