<svg xmlns="http://www.w3.org/2000/svg" viewBox="0 0 500 500"><defs><style>.cls-1{fill:#ec1442;}</style></defs><title>Artboard 1</title><g id="color"><path class="cls-1" d="M271.55,292.19c-5.69,8.26-10.26,17.43-21.91,16.71-10-.62-14.75-8.42-20.24-15.76,3.35-2.3,6.44-4.05,9.08-6.33,3.07-2.64,5.87-3.68,9.71-1.4,1.06.63,3.42-.22,4.81-1,3.1-1.79,5.71-1.69,8.52.58C264.54,287.4,267.8,289.52,271.55,292.19Z"/></g><g id="outline"><path d="M248.66,310.82c-8.45-.85-15.42-7.19-21-15.28-.83-1.2-.11-4.68,1.1-5.82a63.74,63.74,0,0,1,10.44-7.56c1.62-1,4.26-2.25,5.53-1.6,6.6,3.37,14.16-4.87,20.37,2,1.75,1.93,4.17,3.25,6.3,4.83,4.56,3.4,5.31,6.28,2.2,10.94C268.2,306.41,260.61,310.8,248.66,310.82Zm19.91-15.28-32.3,1.59C247.36,308,258.91,307.61,268.57,295.54ZM266,290.4c-4.34-3.52-7.53-7.55-13-3.44-.93.7-3,1.21-3.7.69-6.34-4.6-9.85.51-13.88,4.58Z"/></g></svg>