<svg id="Layer_1" data-name="Layer 1" xmlns="http://www.w3.org/2000/svg" viewBox="0 0 500 500"><title>Artboard 1</title><path d="M277.09,251.27c-.25,5.38-2.26,8.55-6.36,10.33a74.7,74.7,0,0,0-9,4.1c-6.83,4.07-13.25,3.07-19.79-.68a17.88,17.88,0,0,0-6.83-2.32c-4.82-.47-8.5-3.86-8.45-8.67,0-1,.77-2,1.19-3,1,.62,2.78,1.09,2.93,1.87.92,4.82,4.32,5.16,8.22,5.32a9.81,9.81,0,0,1,4.88,1.74c4.94,3.39,9.87,4.33,15.35,1.23,3-1.68,6.45-2.56,9.26-4.45,1.74-1.17,2.59-3.61,4-5.34.72-.87,1.86-2,2.75-2S276.82,251,277.09,251.27Z"/><path d="M250.22,238.79c3.83,1,7,1.52,9.84,2.71,1.1.45,1.59,2.39,2.37,3.66-1.43.36-3,1.33-4.25,1-4.56-1.29-8.93-2.36-13.46.26-.72.42-2.24-.55-3.39-.87.3-1,.29-2.64,1-3C245,241,247.82,239.88,250.22,238.79Z"/></svg>