<svg id="Layer_1" data-name="Layer 1" xmlns="http://www.w3.org/2000/svg" viewBox="0 0 500 500"><title>Artboard 1</title><path d="M236.9,245.4c1.66-25.87,4.25-51.59,13.63-76.07.47-1.23,1.85-2.11,2.81-3.16.54,1.57,1.82,3.3,1.52,4.68-1.86,8.43-4.38,16.72-6.11,25.17-3.75,18.27-6.21,36.68-5.72,55.41.12,4.88,2.16,7.95,6.62,9.38,3.78,1.2,7.77,1.78,11.46,3.2,1.61.62,2.69,2.63,4,4-1.66.67-3.5,2.18-4.93,1.87A78.66,78.66,0,0,1,245,265.33c-7.17-3.2-7.89-10.07-8.08-16.93C236.87,247.4,236.9,246.4,236.9,245.4Z"/></svg>