<svg xmlns="http://www.w3.org/2000/svg" viewBox="0 0 500 500"><path d="M198 500.5l42.37-77.93h19.37L310 500.5z" fill="#fe0101"/><path d="M306 500.5q-22.8-36-45.56-72c-1.54-2.44-3.07-3.29-6.1-2.69-3.65.73-7.49.49-12 .71-10.45 18.77-21.41 38.33-32.25 58-2.88 5.22-5.41 10.64-8.1 16h-7c7.94-14.75 15.81-29.54 23.86-44.24 5.81-10.61 12-21 17.71-31.68 1.83-3.39 4-4.55 7.85-4.25a41.29 41.29 0 0010.85-.79c4.16-.81 6.84.34 9.11 4 12.09 19.28 24.36 38.44 36.54 57.67C305 487.59 309 494.06 313 500.5z"/></svg>