<svg xmlns="http://www.w3.org/2000/svg" viewBox="0 0 500 500"><path d="M186.56 190.37a48.73 48.73 0 01-1.51-6.77c-.08-1.09.72-3.13 1.32-3.21 1.19-.15 3.18.4 3.66 1.29a65.65 65.65 0 015 11.32c1.05 3.34-.5 5.73-4.36 5.12a41.44 41.44 0 01-9.42-2.56c-1.33-.55-2.09-2.49-3.11-3.8a28.06 28.06 0 014.41-1.78c1.06-.24 2.25.19 4.01.39zm130.34.12c1.89-.52 3.28-1.23 4.64-1.17a5.42 5.42 0 013.62 1.53c.38.46-.38 2.78-1.18 3.21-3 1.6-6.18 3.39-9.48 4-4.83.84-7.16-2.54-5.08-7a46.76 46.76 0 015.2-8.46c.68-.9 2.5-.93 3.79-1.36.33 1.44 1.07 2.94.86 4.3-.27 1.53-1.35 2.93-2.37 4.95z"/><path d="M200.9 199.54c.08 3.35-3.44 7-6.89 7.05-4.73.15-7.26-2.35-7.31-7.19 0-5.33 2-7.28 7.69-7.29 4.42-.01 6.4 2.24 6.51 7.43zM317 200c-.06 3.36-3.72 6.57-7.37 6.47-5-.13-7-2.27-6.87-7.5.1-5 2-6.79 7.61-6.84 4.5-.06 6.69 2.53 6.63 7.87z" fill="#0b0b0b"/></svg>