<svg xmlns="http://www.w3.org/2000/svg" viewBox="0 0 500 500"><path d="M200.9 199.54c.08 3.35-3.44 7-6.89 7.05-4.73.15-7.26-2.35-7.31-7.19 0-5.33 2-7.28 7.69-7.29 4.42-.01 6.4 2.24 6.51 7.43zM317 200c-.06 3.36-3.72 6.57-7.37 6.47-5-.13-7-2.27-6.87-7.5.1-5 2-6.79 7.61-6.84 4.5-.06 6.69 2.53 6.63 7.87z" fill="#0b0b0b"/><path d="M267.42 194.34c1.88-5.65 3.46-11.37 5.78-16.77a9.56 9.56 0 015.35-4.51c21.38-7.08 43-9.31 64.86-2.15 1.6.52 3.7 1.5 4.29 2.83 5.53 12.53 8.66 25.6 5.25 39.21s-12.58 21.92-26.28 25c-10.49 2.35-21 2.72-31.57.06-15.68-3.93-24-16.93-26-31.88-.5-3.69-1.71-5.45-5.29-6.58-7.38-2.32-14.53-3.08-21.84.13-2.72 1.2-3.9 2.52-3.9 5.85 0 16.53-8.62 29.61-23.5 34-14.18 4.19-28.59 4-42.41-2.27-8.4-3.79-13.68-10.54-16.64-19-4.05-11.62-4.27-23.38 0-35.05 2-5.58 5.19-9.46 11.69-10.8 20.14-4.17 40.05-5.25 59.9 1.54 3.82 1.31 6.3 3.25 7.25 7.23 1.07 4.5 2.36 8.94 3.46 13.07 5-.71 10-2 15-2s9.84 1.36 14.6 2.09zM310 234c2.33 0 4.67.13 7 0 17.3-1.13 28.6-9.82 31.6-25.12 2.07-10.57-.55-20.78-4.6-30.56-.5-1.2-2.38-2.12-3.81-2.58-20.42-6.71-40.4-3.48-60.14 3.08a7.5 7.5 0 00-4.12 4.34c-4.06 13.31-3.44 26.3 4.39 38.19 6.96 10.65 17.81 13 29.68 12.65zm-116.2 2.47h5c17.55 0 29.44-8 33.35-23.46 2.64-10.41.63-20.76-3-30.71-.45-1.23-2.24-2.26-3.64-2.8-20-7.75-40.14-5.54-60.2-.14a6.76 6.76 0 00-4 3.23c-5.54 12.6-5.58 33.63 6.71 45.15 7.2 6.79 16.2 8.61 25.78 8.73z"/></svg>