<svg xmlns="http://www.w3.org/2000/svg" viewBox="0 0 500 500"><path d="M200.9 199.54c.08 3.35-3.44 7-6.89 7.05-4.73.15-7.26-2.35-7.31-7.19 0-5.33 2-7.28 7.69-7.29 4.42-.01 6.4 2.24 6.51 7.43zM317 200c-.06 3.36-3.72 6.57-7.37 6.47-5-.13-7-2.27-6.87-7.5.1-5 2-6.79 7.61-6.84 4.5-.06 6.69 2.53 6.63 7.87z" fill="#0b0b0b"/><path d="M238.2 185.47c9.35-6.59 18.67-7.47 28.47-1.18.65-1.08 1.28-2 1.79-3 11.38-21.65 37.64-32.43 60.67-24.19a33.39 33.39 0 0114 9.74c18.22 22.39 16.35 49.23-2.72 70-10.6 11.57-25.18 12.59-39.83 9.78-23.52-4.5-41-28.9-35.72-52.35.72-3.18-.3-5.21-3.46-6.71a17.55 17.55 0 00-18.82 1.69c-1.66 1.19-2.84 4.32-2.74 6.48.78 15.89-9.35 41.59-26.51 47.78-35.64 12.87-66.82-13.8-65.37-44.5 1.35-28.45 24.42-44.74 47.66-45.43 21.22-.62 32 6.93 40.94 28 .5 1.25 1.02 2.42 1.64 3.89zM234.43 198c.41-10.39-4.24-18.82-9.8-26.83A26.09 26.09 0 00208.08 160a48.17 48.17 0 00-26 1.36c-29.35 10.07-36.33 43.89-20.75 63.53 13.21 16.66 37.81 21.12 54.2 11 13.69-8.36 17.79-22.69 18.9-37.89zm116 4c-.59-13.47-3.47-21.51-9.86-30-4.25-5.64-9.6-9.61-16.64-11.06a48.28 48.28 0 00-26 1.44c-29.13 10.12-36.3 43.95-20.51 63.62 13 16.25 36.57 20.94 53.37 11.37 14.26-8.09 18.21-22.7 19.67-35.3z"/></svg>