<svg xmlns="http://www.w3.org/2000/svg" viewBox="0 0 500 500"><path d="M200.9 199.54c.08 3.35-3.44 7-6.89 7.05-4.73.15-7.26-2.35-7.31-7.19 0-5.33 2-7.28 7.69-7.29 4.42-.01 6.4 2.24 6.51 7.43zM317 200c-.06 3.36-3.72 6.57-7.37 6.47-5-.13-7-2.27-6.87-7.5.1-5 2-6.79 7.61-6.84 4.5-.06 6.69 2.53 6.63 7.87z" fill="#0b0b0b"/><path d="M265.41 198.13c-9.21 0-17.84-.14-26.46.18-1.07 0-2.86 2.5-2.92 3.9-.17 4 .47 8 .61 11.95.21 6.27-1.91 8.7-8.08 8.71-21.79 0-43.59 0-65.38-.24-7.94-.09-11.16-1.13-11.1-10.23.07-9.79-.15-19.58-.37-29.36-.07-3.16 1.39-4.6 4.35-4.88 6.45-.63 12.88-1.69 19.33-1.8 16.83-.27 33.66-.16 50.49-.14 7.71 0 9.69 2 9.91 9.73.21 7.27-1.42 7.6 7.7 7.4 5.83-.13 11.66-.4 17.49-.38 3.4 0 5-1.19 4.55-4.73-.17-1.46.34-3 .18-4.46-.44-3.89 1.53-5.47 5.09-5.8 5.78-.54 11.56-1.52 17.35-1.6 17.49-.24 35-.17 52.49-.16 6.68 0 8.88 2.21 9.12 9q.51 14.47.89 28.95c.17 6.27-1.92 8.7-8.09 8.71-21.79 0-43.59 0-65.38-.24-7.93-.09-11.26-1.12-11.1-10.23.05-2.48-.52-5-.65-7.44-.12-2.29-.02-4.58-.02-6.84zM196 217.65v.63c10.49 0 21-.07 31.47 0 3.42 0 4.85-1.29 4.7-4.73-.37-8.81-.83-17.61-.79-26.42 0-4.75-1.67-6.62-6.42-6.46-8 .27-16 .09-23.95.25q-19.46.4-38.91 1c-3.22.11-6.44.5-6.26 5.15.32 8.46.57 16.94.65 25.41 0 3.6 1.62 5.1 5.08 5.09 11.49.06 22.96.08 34.43.08zm114 0v.63c10.49 0 21-.07 31.47 0 3.44 0 4.81-1.34 4.67-4.76-.38-9-.77-17.94-.82-26.91 0-4.3-1.66-6-5.91-5.92-8.32.19-16.64 0-25 .21-12.8.27-25.6.72-38.41 1-4.5.1-6.59 2-6.33 6.72.44 8 .67 15.94.75 23.92 0 3.62 1.67 5.07 5.1 5.06l34.48.05z"/></svg>